# xmcd
#
# Track frame offsets: 
#        150
#        19680
#        43260
#        66692
#        91357
#        111087
#        136125
#        154602
#        169897
#        184125
#
# Disc length: 2777 seconds
#
# Revision: 0
# Processed by: cddbd v1.5.2PL0 Copyright (c) Steve Scherf et al.
# Submitted via: ExactAudioCopy v1.0b3
#
DISCID=880ad70a
DTITLE=Tien Bien, Bach Van - Cau Chuyen Mot Buoi Chieu
DYEAR=1994
DGENRE=
TTITLE0=Bach Van - Ve duoi mai nha
TTITLE1=Tien Bien - Cau chuyen mot buoi chieu
TTITLE2=Thien Trang - Tinh chi dep
TTITLE3=Tien Bien - Neu chung minh cach tro
TTITLE4=Bach Van - Nguu lang Chuc nu
TTITLE5=Huong Lan - Sau van dang day
TTITLE6=Tien Bien - Lang toi
TTITLE7=Thien Trang - Con thuong rau dang moc sau he
TTITLE8=Bach Van - Em di chua Huong
TTITLE9=Tien Bien - No
EXTD=
EXTT0=
EXTT1=
EXTT2=
EXTT3=
EXTT4=
EXTT5=
EXTT6=
EXTT7=
EXTT8=
EXTT9=
PLAYORDER=
